<svg xmlns="http://www.w3.org/2000/svg" width="96" height="96" viewBox="0 0 96 96" fill="none">
  <g clip-path="url(#clip0_829_28)">
    <path d="M24 60C20.68 60 17.68 61.36 15.52 63.52C10.8 68.24 8 88 8 88C8 88 27.76 85.2 32.48 80.48C34.64 78.32 36 75.32 36 72C36 65.36 30.64 60 24 60ZM26.84 74.84C25.72 75.96 18.16 77.88 18.16 77.88C18.16 77.88 20.04 70.36 21.2 69.2C21.88 68.44 22.88 68 24 68C26.2 68 28 69.8 28 72C28 73.12 27.56 74.12 26.84 74.84ZM69.68 54.6C95.12 29.16 86.64 9.35997 86.64 9.35997C86.64 9.35997 66.84 0.879974 41.4 26.32L31.44 24.32C28.84 23.8 26.12 24.64 24.2 26.52L8 42.76L28 51.32L44.68 68L53.24 88L69.44 71.8C71.32 69.92 72.16 67.2 71.64 64.56L69.68 54.6ZM29.64 43.32L22 40.04L29.88 32.16L35.64 33.32C33.36 36.64 31.32 40.12 29.64 43.32ZM55.96 74L52.68 66.36C55.88 64.68 59.36 62.64 62.64 60.36L63.8 66.12L55.96 74ZM64 48.96C58.72 54.24 50.48 58.56 47.84 59.88L36.12 48.16C37.4 45.56 41.72 37.32 47.04 32C65.76 13.28 79.96 16.04 79.96 16.04C79.96 16.04 82.72 30.24 64 48.96ZM60 44C64.4 44 68 40.4 68 36C68 31.6 64.4 28 60 28C55.6 28 52 31.6 52 36C52 40.4 55.6 44 60 44Z" fill="black"/>
  </g>
  <defs>
    <clipPath id="clip0_829_28">
      <rect width="96" height="96" fill="white"/>
    </clipPath>
  </defs>
</svg>